grf
version=1
nRows=10
nColumns=73
inDegrees=yes
endheader
time	ground_force_1_vx	ground_force_1_vy	ground_force_1_vz	ground_force_1_px	ground_force_1_py	ground_force_1_pz	ground_moment_1_mx	ground_moment_1_my	ground_moment_1_mz	ground_force_2_vx	ground_force_2_vy	ground_force_2_vz	ground_force_2_px	ground_force_2_py	ground_force_2_pz	ground_moment_2_mx	ground_moment_2_my	ground_moment_2_mz	ground_force_3_vx	ground_force_3_vy	ground_force_3_vz	ground_force_3_px	ground_force_3_py	ground_force_3_pz	ground_moment_3_mx	ground_moment_3_my	ground_moment_3_mz	ground_force_4_vx	ground_force_4_vy	ground_force_4_vz	ground_force_4_px	ground_force_4_py	ground_force_4_pz	ground_moment_4_mx	ground_moment_4_my	ground_moment_4_mz	ground_force_5_vx	ground_force_5_vy	ground_force_5_vz	ground_force_5_px	ground_force_5_py	ground_force_5_pz	ground_moment_5_mx	ground_moment_5_my	ground_moment_5_mz	ground_force_6_vx	ground_force_6_vy	ground_force_6_vz	ground_force_6_px	ground_force_6_py	ground_force_6_pz	ground_moment_6_mx	ground_moment_6_my	ground_moment_6_mz	ground_force_7_vx	ground_force_7_vy	ground_force_7_vz	ground_force_7_px	ground_force_7_py	ground_force_7_pz	ground_moment_7_mx	ground_moment_7_my	ground_moment_7_mz	ground_force_8_vx	ground_force_8_vy	ground_force_8_vz	ground_force_8_px	ground_force_8_py	ground_force_8_pz	ground_moment_8_mx	ground_moment_8_my	ground_moment_8_mz
2.749000	0.000000	0.000000	0.000000	0.000000	0.000000	0.000000	0.000000	0.000000	0.000000	-69.292172	533.901288	-21.463821	0.594090	0.000000	0.425082	0.000000	-0.371219	-0.000000	-67.992762	533.721344	-21.819097	0.598351	0.000000	0.428395	0.000000	-0.517320	-0.000000	0.000000	0.000000	0.000000	0.000000	0.000000	0.000000	0.000000	0.000000	0.000000	-69.654039	532.512453	-22.297059	0.598283	0.000000	0.425122	0.000000	-0.457844	0.000000	0.000000	0.000000	0.000000	0.000000	0.000000	0.000000	0.000000	0.000000	0.000000	0.000000	0.000000	0.000000	0.000000	0.000000	0.000000	0.000000	0.000000	0.000000	-70.195266	529.131290	-23.182215	0.596334	0.000000	0.424799	0.000000	-0.678254	-0.000000
2.750000	0.000000	0.000000	0.000000	0.000000	0.000000	0.000000	0.000000	0.000000	0.000000	-68.788094	533.027539	-21.266722	0.593095	0.000000	0.425016	0.000000	-0.364333	-0.000000	-67.484844	532.836548	-21.671379	0.597396	0.000000	0.428317	0.000000	-0.539892	-0.000000	0.000000	0.000000	0.000000	0.000000	0.000000	0.000000	0.000000	0.000000	0.000000	-69.173879	531.606620	-22.150677	0.597311	0.000000	0.425038	0.000000	-0.475492	0.000000	0.000000	0.000000	0.000000	0.000000	0.000000	0.000000	0.000000	0.000000	0.000000	0.000000	0.000000	0.000000	0.000000	0.000000	0.000000	0.000000	0.000000	0.000000	-69.722729	528.221983	-23.021473	0.595331	0.000000	0.424744	0.000000	-0.688683	-0.000000
2.751000	0.000000	0.000000	0.000000	0.000000	0.000000	0.000000	0.000000	0.000000	0.000000	-68.267139	532.158033	-21.073819	0.592107	0.000000	0.424953	0.000000	-0.358011	-0.000000	-66.965418	531.952215	-21.527971	0.596448	0.000000	0.428242	0.000000	-0.563865	-0.000000	0.000000	0.000000	0.000000	0.000000	0.000000	0.000000	0.000000	0.000000	0.000000	-68.682331	530.708329	-22.000362	0.596345	0.000000	0.424957	0.000000	-0.496011	0.000000	0.000000	0.000000	0.000000	0.000000	0.000000	0.000000	0.000000	0.000000	0.000000	0.000000	0.000000	0.000000	0.000000	0.000000	0.000000	0.000000	0.000000	0.000000	-69.237065	527.330002	-22.848387	0.594325	0.000000	0.424695	0.000000	-0.697832	-0.000000
2.752000	0.000000	0.000000	0.000000	0.000000	0.000000	0.000000	0.000000	0.000000	0.000000	-67.730805	531.289893	-20.891294	0.591125	0.000000	0.424893	0.000000	-0.352641	-0.000000	-66.435792	531.065170	-21.392779	0.595508	0.000000	0.428171	0.000000	-0.588020	-0.000000	0.000000	0.000000	0.000000	0.000000	0.000000	0.000000	0.000000	0.000000	0.000000	-68.178934	529.813441	-21.849236	0.595385	0.000000	0.424879	0.000000	-0.519030	0.000000	0.000000	0.000000	0.000000	0.000000	0.000000	0.000000	0.000000	0.000000	0.000000	0.000000	0.000000	0.000000	0.000000	0.000000	0.000000	0.000000	0.000000	0.000000	-68.738028	526.450676	-22.667991	0.593319	0.000000	0.424653	0.000000	-0.706267	-0.000000
2.753000	0.000000	0.000000	0.000000	0.000000	0.000000	0.000000	0.000000	0.000000	0.000000	-67.180731	530.420848	-20.724273	0.590148	0.000000	0.424837	0.000000	-0.348634	-0.000000	-65.897450	530.172927	-21.269068	0.594576	0.000000	0.428104	0.000000	-0.611409	-0.000000	0.000000	0.000000	0.000000	0.000000	0.000000	0.000000	0.000000	0.000000	0.000000	-67.664124	528.918352	-21.701130	0.594432	0.000000	0.424804	0.000000	-0.543632	0.000000	0.000000	0.000000	0.000000	0.000000	0.000000	0.000000	0.000000	0.000000	0.000000	0.000000	0.000000	0.000000	0.000000	0.000000	0.000000	0.000000	0.000000	0.000000	-68.226102	525.579890	-22.486003	0.592312	0.000000	0.424616	0.000000	-0.713998	-0.000000
2.754000	0.000000	0.000000	0.000000	0.000000	0.000000	0.000000	0.000000	0.000000	0.000000	-66.618196	529.548779	-20.576992	0.589176	0.000000	0.424783	0.000000	-0.346707	-0.000000	-65.351591	529.273331	-21.159310	0.593651	0.000000	0.428039	0.000000	-0.633563	-0.000000	0.000000	0.000000	0.000000	0.000000	0.000000	0.000000	0.000000	0.000000	0.000000	-67.139129	528.020286	-21.559989	0.593486	0.000000	0.424732	0.000000	-0.568571	0.000000	0.000000	0.000000	0.000000	0.000000	0.000000	0.000000	0.000000	0.000000	0.000000	0.000000	0.000000	0.000000	0.000000	0.000000	0.000000	0.000000	0.000000	0.000000	-67.702335	524.714432	-22.308207	0.591305	0.000000	0.424583	0.000000	-0.720684	-0.000000
2.755000	0.000000	0.000000	0.000000	0.000000	0.000000	0.000000	0.000000	0.000000	0.000000	-66.044240	528.671638	-20.453101	0.588210	0.000000	0.424731	0.000000	-0.347869	-0.000000	-64.799153	528.364469	-21.065273	0.592733	0.000000	0.427976	0.000000	-0.654378	-0.000000	0.000000	0.000000	0.000000	0.000000	0.000000	0.000000	0.000000	0.000000	0.000000	-66.605554	527.117273	-21.429274	0.592547	0.000000	0.424665	0.000000	-0.592719	0.000000	0.000000	0.000000	0.000000	0.000000	0.000000	0.000000	0.000000	0.000000	0.000000	0.000000	0.000000	0.000000	0.000000	0.000000	0.000000	0.000000	0.000000	0.000000	-67.167918	523.851964	-22.139869	0.590300	0.000000	0.424551	0.000000	-0.726081	-0.000000
2.756000	0.000000	0.000000	0.000000	0.000000	0.000000	0.000000	0.000000	0.000000	0.000000	-65.460474	527.787761	-20.355720	0.587250	0.000000	0.424678	0.000000	-0.353152	0.000000	-64.241348	527.444832	-20.988169	0.591824	0.000000	0.427914	0.000000	-0.673812	-0.000000	0.000000	0.000000	0.000000	0.000000	0.000000	0.000000	0.000000	0.000000	0.000000	-66.064818	526.207801	-21.311640	0.591614	0.000000	0.424599	0.000000	-0.615412	0.000000	0.000000	0.000000	0.000000	0.000000	0.000000	0.000000	0.000000	0.000000	0.000000	0.000000	0.000000	0.000000	0.000000	0.000000	0.000000	0.000000	0.000000	0.000000	-66.623661	522.990608	-21.985464	0.589299	0.000000	0.424519	0.000000	-0.730417	-0.000000
2.757000	0.000000	0.000000	0.000000	0.000000	0.000000	0.000000	0.000000	0.000000	0.000000	-64.869951	526.896102	-20.287057	0.586299	0.000000	0.424622	0.000000	-0.363239	0.000000	-63.680273	526.513339	-20.928674	0.590923	0.000000	0.427851	0.000000	-0.691642	-0.000000	0.000000	0.000000	0.000000	0.000000	0.000000	0.000000	0.000000	0.000000	0.000000	-65.517909	525.290529	-21.208966	0.590687	0.000000	0.424537	0.000000	-0.636458	0.000000	0.000000	0.000000	0.000000	0.000000	0.000000	0.000000	0.000000	0.000000	0.000000	0.000000	0.000000	0.000000	0.000000	0.000000	0.000000	0.000000	0.000000	0.000000	-66.069872	522.128482	-21.848884	0.588303	0.000000	0.424485	0.000000	-0.734489	-0.000000
2.758000	0.000000	0.000000	0.000000	0.000000	0.000000	0.000000	0.000000	0.000000	0.000000	-64.277378	525.995877	-20.247681	0.585356	0.000000	0.424563	0.000000	-0.378225	0.000000	-63.119077	525.569160	-20.886717	0.590032	0.000000	0.427788	0.000000	-0.707442	-0.000000	0.000000	0.000000	0.000000	0.000000	0.000000	0.000000	0.000000	0.000000	0.000000	-64.965793	524.364389	-21.122559	0.589768	0.000000	0.424475	0.000000	-0.655858	0.000000	0.000000	0.000000	0.000000	0.000000	0.000000	0.000000	0.000000	0.000000	0.000000	0.000000	0.000000	0.000000	0.000000	0.000000	0.000000	0.000000	0.000000	0.000000	-65.506927	521.263717	-21.733660	0.587317	0.000000	0.424447	0.000000	-0.739405	-0.000000
